<svg xmlns="http://www.w3.org/2000/svg" width="384" height="144" viewBox="0 0 384 144" fill="none"><path opacity="0.95" d="M1 42.2418C39.9954 40.7231 47.2028 89.1769 68.3186 89.4291C81.5726 89.6144 89.2238 74.6747 96.2698 63.1739C100.501 56.2549 104.459 50.5817 109.268 50.4273C125.489 49.8558 134.642 101.136 152.172 101.136C174.583 101.136 182.23 9.5 200.701 9.5C216.506 9.5 216.923 76.7854 226.734 112.22C230.029 124.225 234.125 132.349 239.975 132.544C249.078 132.853 255.461 109.754 262.247 87.5037C268.195 68.0028 273.623 49.2432 280.714 48.9806C291.834 48.5688 299.055 73.6605 310.166 86.6595C313.954 91.0868 318.095 94.0933 322.95 94.1036C344.052 94.1705 357.396 32.2545 383.532 62.412" stroke="url(#paint0_linear_1094_327)" stroke-miterlimit="10"></path><path opacity="0.95" d="M1 52.2418C39.9954 50.7231 47.2028 99.1769 68.3186 99.4291C81.5726 99.6144 89.2238 84.6747 96.2698 73.1739C100.501 66.2549 104.459 60.5817 109.268 60.4273C125.489 59.8558 134.642 111.136 152.172 111.136C174.583 111.136 182.23 19.5 200.701 19.5C216.506 19.5 216.923 86.7854 226.734 122.22C230.029 134.225 234.125 142.349 239.975 142.544C249.078 142.853 255.461 119.754 262.247 97.5037C268.195 78.0028 273.623 59.2432 280.714 58.9806C291.834 58.5688 299.055 83.6605 310.166 96.6595C313.954 101.087 318.095 104.093 322.95 104.104C344.052 104.17 357.396 42.2545 383.532 72.412" stroke="url(#paint1_linear_1094_327)" stroke-miterlimit="10"></path><path opacity="0.95" d="M1 33.2418C39.9954 31.7231 47.2028 80.1769 68.3186 80.4291C81.5726 80.6144 89.2238 65.6747 96.2698 54.1739C100.501 47.2549 104.459 41.5817 109.268 41.4273C125.489 40.8558 134.642 92.1359 152.172 92.1359C174.583 92.1359 182.23 0.5 200.701 0.5C216.506 0.5 216.923 67.7854 226.734 103.22C230.029 115.225 234.125 123.349 239.975 123.544C249.078 123.853 255.461 100.754 262.247 78.5037C268.195 59.0028 273.623 40.2432 280.714 39.9806C291.834 39.5688 299.055 64.6605 310.166 77.6595C313.954 82.0868 318.095 85.0933 322.95 85.1036C344.052 85.1705 357.396 23.2545 383.532 53.412" stroke="url(#paint2_linear_1094_327)" stroke-miterlimit="10"></path><defs><linearGradient id="paint0_linear_1094_327" x1="0.995518" y1="71.0093" x2="383.697" y2="71.0093" gradientUnits="userSpaceOnUse"><stop stop-color="#0081FF"></stop><stop offset="1" stop-color="white"></stop></linearGradient><linearGradient id="paint1_linear_1094_327" x1="0.995518" y1="81.0093" x2="383.697" y2="81.0093" gradientUnits="userSpaceOnUse"><stop stop-color="#0081FF"></stop><stop offset="1" stop-color="white"></stop></linearGradient><linearGradient id="paint2_linear_1094_327" x1="0.995518" y1="62.0093" x2="383.697" y2="62.0093" gradientUnits="userSpaceOnUse"><stop stop-color="#0081FF"></stop><stop offset="1" stop-color="white"></stop></linearGradient></defs></svg>