<svg xmlns:inkscape="http://www.inkscape.org/namespaces/inkscape" xmlns:sodipodi="http://sodipodi.sourceforge.net/DTD/sodipodi-0.dtd" xmlns="http://www.w3.org/2000/svg" xmlns:svg="http://www.w3.org/2000/svg" width="167" height="29" viewBox="0 0 167 29" fill="none" id="svg25" sodipodi:docname="Logo_updated.svg" inkscape:version="1.2.2 (b0a8486541, 2022-12-01)"><g clip-path="url(#clip0_1433_1219)" id="g18"><path fill-rule="evenodd" clip-rule="evenodd" d="M113.072 5.50697V2.30005H109.427V5.50697H113.072ZM45.7264 22.4372V8.51172L54.1736 22.4372H57.9344V2.30011H54.3183V16.1678L45.8422 2.30011H42.1104V22.4372H45.7264ZM67.1336 28.331L75.2336 8.19389H71.415L67.7699 18.0746L64.1538 8.19389H60.3353L65.9186 22.0616L63.3728 28.331H67.1336ZM88.917 8.19379V28.3309H85.4456V20.9926C84.5487 22.0615 82.9576 22.726 81.3376 22.726C77.8372 22.726 75.3204 19.9814 75.3204 15.3298C75.3204 11.054 77.4612 7.90487 81.3376 7.90487C82.8708 7.90487 84.4619 8.39599 85.4456 9.6094V8.19379H88.917ZM82.2054 19.6925C79.8911 19.6925 78.7917 18.0746 78.7917 15.3011C78.7917 12.4986 79.8622 10.9385 82.1765 10.9385C84.6933 10.9385 85.7636 12.7586 85.7636 15.3011C85.7636 17.7857 84.6933 19.6925 82.2054 19.6925ZM101.993 20.7904C100.98 22.1483 99.4178 22.7261 97.7402 22.7261C94.153 22.7261 92.6487 20.1258 92.6487 17.0923V8.19389H96.1202V16.3179C96.1225 17.3548 96.1991 19.6925 98.7522 19.6925C101.895 19.6925 101.99 16.3489 101.993 13.828V8.19389H105.464V22.4372H101.993V20.7904ZM112.986 8.19389V22.4372H109.514V8.19389H112.986ZM121.519 22.726C124.21 22.726 127.073 21.2814 127.073 17.959C127.073 14.7985 124.317 14.0284 122.155 13.424C120.759 13.0339 119.61 12.713 119.61 11.863C119.61 11.1985 120.305 10.6496 121.433 10.6496C122.995 10.6496 123.776 11.574 124.268 12.4697L126.958 10.9962C125.888 9.06051 124.008 7.90487 121.548 7.90487C118.8 7.90487 116.313 9.32053 116.313 12.0652C116.313 15.2246 118.936 15.9286 121.048 16.4953C122.47 16.8769 123.66 17.1962 123.66 18.1613C123.66 18.9123 122.966 19.8369 121.346 19.8369C119.437 19.8369 118.685 18.5368 118.309 17.4967L115.532 18.739C116.225 20.9059 118.511 22.726 121.519 22.726ZM137.604 22.2926C136.736 22.5815 135.868 22.726 135.001 22.726C132.599 22.726 130.574 21.4836 130.574 18.4501V10.9384V8.19379V4.46921H134.045V8.19379H137.604V10.9384H134.045V18.1901C134.045 19.3168 134.74 19.8369 135.868 19.8369C136.36 19.8369 136.967 19.7213 137.604 19.519V22.2926Z" fill="white" id="path2"></path><path fill-rule="evenodd" clip-rule="evenodd" d="M1.59154 9.38215C0.608091 8.1234 0.831276 6.30571 2.09003 5.32225C3.34879 4.33881 5.16646 4.56198 6.1499 5.82075L6.5508 6.33387L6.39941 15.536L1.59154 9.38215Z" fill="black" stroke="white" stroke-width="1.90749" id="path4" style="fill:none"></path><path fill-rule="evenodd" clip-rule="evenodd" d="M25.9619 10.613L30.6807 16.6528C31.6642 17.9116 31.4409 19.7293 30.1822 20.7127C28.9234 21.6962 27.1058 21.473 26.1224 20.2142L26.0609 20.1356L25.9619 10.613Z" fill="black" stroke="white" stroke-width="1.90749" id="path6" style="fill:none"></path><path d="M12.1811 3.8994C12.1811 2.30202 10.8862 1.00708 9.2888 1.00708C7.69142 1.00708 6.39648 2.30202 6.39648 3.8994V21.2533C6.39648 22.8507 7.69142 24.1456 9.2888 24.1456C10.8862 24.1456 12.1811 22.8507 12.1811 21.2533V3.8994Z" fill="black" stroke="white" stroke-width="1.90749" id="path8" style="fill:none"></path><path d="M25.7766 4.18847C25.7766 2.59108 24.4816 1.29614 22.8843 1.29614C21.2869 1.29614 19.9919 2.59108 19.9919 4.18847V21.5424C19.9919 23.1398 21.2869 24.4347 22.8843 24.4347C24.4816 24.4347 25.7766 23.1398 25.7766 21.5424V4.18847Z" fill="black" stroke="white" stroke-width="1.90749" id="path10" style="fill:none"></path><path d="M11.6004 2.27908C10.617 1.02032 8.79929 0.797142 7.54053 1.78059C6.28178 2.76404 6.0586 4.5817 7.04205 5.84046L20.5753 23.1622C21.5587 24.421 23.3764 24.6441 24.6351 23.6607C25.8939 22.6772 26.1171 20.8596 25.1336 19.6008L11.6004 2.27908Z" fill="black" stroke="white" stroke-width="1.90749" id="path12" style="fill:none"></path><path d="M156.617 22.7342H160.61L152.447 2.30518H149.687L141.494 22.7342H145.488L147.044 18.5136H155.061L156.617 22.7342ZM148.307 15.1429L151.067 7.6982L153.827 15.1429H148.307Z" fill="white" id="path14"></path><path d="M163.317 22.7342H166.988V2.30518H163.317V22.7342Z" fill="white" id="path16"></path></g><defs id="defs23"><clipPath id="clip0_1433_1219"><rect width="167" height="28.3129" fill="white" id="rect20"></rect></clipPath></defs></svg>