<svg xmlns="http://www.w3.org/2000/svg" width="102" height="33" viewBox="0 0 102 33" fill="none"><path d="M7.30212 32.4302H4.96429L0 20.438H2.52544L6.12359 29.7364L9.74098 20.438H12.2664L7.30212 32.4302ZM23.5756 32.3821H14.6379V20.4428H23.5756V22.6267H16.8699V25.3734H23.3351V27.4708H16.8699V30.1646H23.5756V32.3821ZM34.5432 20.4236H36.7944V32.3821H35.3946V32.4014L29.1171 24.3344V32.387H26.8659V20.4476H28.689L34.5384 27.8508V20.4236H34.5432ZM42.9661 22.4872H39.1804V20.438H49.0079V22.4872H45.2222V32.3821H42.9709V22.4872H42.9661ZM62.2268 20.4573V27.2976C62.2268 30.8284 60.0621 32.6371 57.0557 32.6371C54.1887 32.6371 51.7498 30.8957 51.7498 27.2976V20.4573H53.9867V27.2976C53.9867 29.4478 55.2133 30.5879 57.0749 30.5879C58.9365 30.5879 59.99 29.342 59.99 27.2976V20.4573H62.2268ZM76.0422 32.3821H73.3628L69.8849 28.3895H67.7202V32.3821H65.469V20.4236C67.3643 20.4236 69.2548 20.4428 71.15 20.4428C73.9641 20.4621 75.4505 22.3381 75.4505 24.4018C75.4505 26.0373 74.7001 27.692 72.4296 28.1538L76.047 32.233V32.3821H76.0422ZM67.7154 22.5401V26.3596H71.1452C72.5787 26.3596 73.1896 25.4023 73.1896 24.4499C73.1896 23.4926 72.5595 22.5401 71.1452 22.5401H67.7154ZM86.8895 32.3821H77.9519V20.4428H86.8895V22.6267H80.1839V25.3734H86.649V27.4708H80.1839V30.1646H86.8895V32.3821ZM97.3761 23.3242C96.9672 22.6412 95.8416 21.9918 94.5428 21.9918C92.8736 21.9918 92.0703 22.6893 92.0703 23.5792C92.0703 24.6182 93.2969 24.9117 94.7304 25.08C97.2222 25.3879 99.5408 26.0373 99.5408 28.885C99.5408 31.5451 97.1885 32.69 94.5236 32.69C92.0847 32.69 90.2087 31.9396 89.3188 29.7557L91.1948 28.784C91.7239 30.0972 93.1045 30.6793 94.5572 30.6793C95.9715 30.6793 97.304 30.1838 97.304 28.8898C97.304 27.7642 96.1254 27.3024 94.538 27.134C92.0991 26.8454 89.8479 26.196 89.8479 23.5166C89.8479 21.0586 92.2723 20.0532 94.4707 20.0388C96.3323 20.0388 98.2564 20.5679 99.1608 22.4103L97.3761 23.3242Z" fill="#F58434"></path><path d="M1.89529 9.3246V13.524H0.634979V0.906469H6.27753C11.9201 0.906469 11.9201 9.31017 6.27753 9.3246H1.89529ZM1.89529 8.13644H6.27753C10.2268 8.13644 10.2268 2.09463 6.27753 2.09463H1.89529V8.13644ZM22.2864 13.5289H13.2381V0.906469H22.1277V2.09463H14.5032V6.62118H21.7861V7.7949H14.5032V12.3359H22.2912V13.5289H22.2864ZM29.1171 2.09463H24.6627V0.906469H34.8318V2.09463H30.3774V13.524H29.1171V2.09463ZM46.2757 13.5289H37.2274V0.906469H46.1169V2.09463H38.4925V6.62118H45.7754V7.7949H38.4925V12.3359H46.2805V13.5289H46.2757ZM60.4614 13.5289H58.8211L54.6361 8.87723H51.3747V13.5289H50.1143V0.906469H55.7761C58.5902 0.906469 59.9419 2.78251 59.9611 4.90869C59.9804 6.87613 58.8259 8.66077 56.1562 8.78584L60.4614 13.5289ZM51.3747 2.09463V7.68427H55.704C57.7243 7.68427 58.696 6.49611 58.696 4.90869C58.696 3.32127 57.7243 2.09463 55.7761 2.09463H51.3747ZM71.4771 3.50406C70.7363 2.3159 69.1874 1.91664 67.8549 1.8974C66.306 1.8974 64.3049 2.34958 64.3049 4.20638C64.3049 5.68316 65.926 6.08242 67.8934 6.42395C70.3804 6.85688 72.9058 7.41489 72.9058 10.1039C72.8866 12.9516 70.1495 13.7261 67.8598 13.7261C65.7336 13.7261 63.5689 12.9516 62.5972 10.9313L63.6988 10.3348C64.5647 11.9559 66.3301 12.5187 67.8646 12.5187C69.4135 12.5187 71.6311 12.105 71.6311 10.0846C71.6503 8.37215 69.7358 7.93921 67.7732 7.59768C65.392 7.18399 63.0494 6.65966 63.0494 4.20638C63.0157 1.55587 65.7191 0.709244 67.8453 0.709244C69.577 0.709244 71.4339 1.17585 72.5499 2.90758L71.4771 3.50406ZM87.8276 7.25133C87.8083 10.5512 85.7158 13.7597 81.4442 13.7597C77.1534 13.7597 75.0416 10.5512 75.0416 7.23209C75.0416 3.68205 77.3506 0.690002 81.4442 0.690002C85.7158 0.709244 87.8468 3.87927 87.8276 7.25133ZM81.4442 12.5716C84.8884 12.5716 86.548 9.95957 86.5624 7.25133C86.5624 4.42284 84.8836 1.8974 81.4442 1.87816C78.0529 1.87816 76.2683 4.27372 76.3067 7.25133C76.3404 10.0125 78 12.5716 81.4442 12.5716ZM99.8294 11.1477L99.7573 6.96271V0.906469H101.018V13.5289H100.262L92.0943 3.37899L92.128 7.11183V13.5289H90.8677V0.906469H91.6614L99.8294 11.1477Z" fill="#5C5C5C"></path></svg>