<svg xmlns="http://www.w3.org/2000/svg" width="48" height="20" viewBox="0 0 48 20" fill="none"><mask id="mask0_4_53" style="mask-type:luminance" maskUnits="userSpaceOnUse" x="0" y="0" width="48" height="20"><path d="M47.2132 0H0V20H47.2132V0Z" fill="white"></path></mask><g mask="url(#mask0_4_53)"><path d="M31.922 0V8.28712L34.2908 16.8353H34.7483L37.1171 8.28712V0H40.5151V8.74387L37.1171 20H31.971L28.5893 8.74387V0H31.922Z" fill="black"></path><path d="M0 3.34421V0H11.8115V3.34421H7.6456V20H4.14953V3.34421H0Z" fill="black"></path><path d="M17.0719 0H22.512L25.7794 11.2561V20H22.3977V14.062H17.1862V20H13.8046V11.2561L17.0719 0ZM22.071 10.7178L20.0615 3.34421H19.4897L17.4803 10.7178H22.071Z" fill="black"></path><path d="M47.2131 0.0163269H43.8641V3.36054H47.2131V0.0163269Z" fill="#33C780"></path></g></svg>