<svg xmlns="http://www.w3.org/2000/svg" width="138" height="32" viewBox="0 0 138 32" fill="none"><path fill-rule="evenodd" clip-rule="evenodd" d="M106.669 0.0555449C106.535 0.0780721 106.077 0.18557 105.651 0.294353C105.225 0.403234 104.577 0.621591 104.21 0.779678C103.843 0.937764 103.229 1.27261 102.845 1.52386C102.462 1.77512 101.887 2.23259 101.568 2.54037C101.25 2.84804 100.791 3.36665 100.548 3.69271C100.306 4.01867 99.9647 4.57443 99.7891 4.92775C99.6135 5.28098 99.36 5.92568 99.2246 6.36041C99.09 6.79515 98.9251 7.49646 98.8578 7.91884C98.7807 8.41042 98.7561 9.15742 98.7914 9.99376C98.8283 10.8668 98.9161 11.5623 99.0564 12.0888C99.1721 12.5222 99.3953 13.184 99.5528 13.5594C99.7112 13.9349 100.043 14.5511 100.291 14.929C100.539 15.3069 101.033 15.9134 101.388 16.2768C101.743 16.6401 102.367 17.1628 102.775 17.4383C103.184 17.7139 103.856 18.0822 104.271 18.2569C104.685 18.4316 105.361 18.6645 105.774 18.7742C106.25 18.9012 106.993 18.9941 107.814 19.0293C108.638 19.0646 109.378 19.0401 109.863 18.9615C110.28 18.8939 110.973 18.7267 111.403 18.5901C111.832 18.4536 112.446 18.2081 112.769 18.0445C113.09 17.8809 113.596 17.586 113.89 17.3891C114.186 17.1923 114.746 16.7254 115.135 16.3518L115.842 15.6723V12.2267V8.78113H111.5H107.157V10.2137V11.6464H109.841H112.524V13.1046V14.5627L111.904 14.9889C111.563 15.2232 110.897 15.5498 110.425 15.7145C109.787 15.937 109.325 16.0267 108.63 16.0632C107.985 16.0969 107.472 16.0642 106.98 15.9583C106.588 15.8736 105.93 15.6409 105.516 15.4413C104.934 15.1592 104.591 14.899 103.983 14.2762C103.407 13.6862 103.106 13.2784 102.843 12.7333C102.646 12.3257 102.417 11.7225 102.334 11.3927C102.251 11.063 102.155 10.4183 102.122 9.96004C102.079 9.3783 102.109 8.84373 102.221 8.18828C102.338 7.50012 102.501 6.99918 102.83 6.31102C103.191 5.55625 103.417 5.23454 103.984 4.66889C104.475 4.17754 104.906 3.85762 105.41 3.60823C105.808 3.41181 106.394 3.18367 106.714 3.10137C107.046 3.0161 107.717 2.95217 108.276 2.95287C108.821 2.95346 109.493 3.01798 109.791 3.0984C110.086 3.17785 110.613 3.3879 110.962 3.56525C111.356 3.76504 111.874 4.16044 112.327 4.60526C112.728 4.99998 113.064 5.32297 113.075 5.32297C113.086 5.32297 113.668 4.98536 114.37 4.57266C115.538 3.88528 115.636 3.80574 115.54 3.62335C115.481 3.51378 115.102 3.07134 114.695 2.64006C114.287 2.20877 113.635 1.63976 113.246 1.37576C112.855 1.11166 112.193 0.761992 111.774 0.598571C111.355 0.435149 110.673 0.230823 110.26 0.144468C109.765 0.0412177 109.063 -0.00778859 108.21 0.00100494C107.497 0.00841526 106.803 0.0329187 106.669 0.0555449ZM0 0.328738C0 0.355612 1.60814 4.52483 3.57365 9.59368C5.53918 14.6625 7.16889 18.8653 7.19504 18.9332C7.23076 19.0256 7.68466 19.0567 8.99955 19.0567H10.7564L10.6987 18.8344C10.667 18.712 9.0898 14.4994 7.19387 9.47274L3.74669 0.333381L1.8733 0.306506C0.843011 0.291784 0 0.301764 0 0.328738ZM13.4714 4.06322C12.7029 6.14176 12.0533 7.89909 12.0277 7.96815C11.9911 8.06774 12.3614 8.0883 13.8067 8.06695L15.6318 8.04007L17.0873 4.28692C17.8877 2.22271 18.5427 0.477635 18.5427 0.408867C18.5427 0.312633 18.1214 0.283979 16.7057 0.283979H14.8688L13.4714 4.06322ZM82.5813 0.464C82.5986 0.563001 84.1715 4.78588 86.0767 9.8482L89.5417 19.0525L91.4306 19.0545C92.9026 19.0562 93.3095 19.0294 93.2726 18.9332C93.2472 18.8653 91.6094 14.6415 89.6345 9.54683L86.0431 0.283979H84.2962C82.6609 0.283979 82.5518 0.295342 82.5813 0.464ZM25.7645 9.81621V19.0567H27.4241H29.0837L29.0588 9.84328L29.0339 0.629792L27.3992 0.60272L25.7645 0.575647V9.81621ZM37.5408 0.646293C37.505 0.682455 37.4757 4.83962 37.4757 9.88447V19.0567H43.1361H48.7965V17.624V16.1914H44.7952H40.7938V8.38589V0.580391H39.1998C38.3231 0.580391 37.5765 0.610032 37.5408 0.646293ZM57.2871 9.81858V19.0567H62.8986H68.5102V17.624V16.1914H64.509H60.5076V8.38589V0.580391H58.8973H57.2871V9.81858ZM124.528 2.06245V3.5445H130.774H137.021V2.06245V0.580391H130.774H124.528V2.06245ZM124.528 13.6225V19.0567H130.774H137.021V17.624V16.1914H132.385H127.749V13.6729V11.1544L132.36 11.1287L136.971 11.103L136.999 9.64562L137.026 8.18828H130.777H124.528V13.6225ZM77.6777 11.4241C77.6197 11.5193 76.9258 13.2643 76.1356 15.3022L74.6991 19.0073L76.5472 19.0342C77.5637 19.049 78.4156 19.0405 78.4404 19.0154C78.4652 18.9903 79.1147 17.2685 79.8837 15.1893C80.6527 13.11 81.2604 11.3733 81.2339 11.3301C81.2075 11.2866 80.4202 11.2512 79.4845 11.2512C77.9696 11.2512 77.7717 11.2702 77.6777 11.4241ZM100.472 26.6128C100.203 26.6908 99.9557 26.7567 99.9212 26.7591C99.8868 26.7614 99.6365 26.9653 99.3657 27.2121C99.0137 27.5322 98.8152 27.8169 98.6716 28.204C98.5616 28.5026 98.4714 28.9658 98.4714 29.2335C98.4714 29.5011 98.5616 29.9645 98.6716 30.2631C98.8135 30.6451 99.0137 30.9346 99.3493 31.2402C99.6849 31.5452 99.9975 31.7229 100.4 31.8373C100.715 31.9268 101.077 32 101.204 32C101.331 32 101.689 31.928 101.999 31.8398C102.334 31.7448 102.722 31.5409 102.957 31.3381L103.351 30.9965V30.0162V29.0359H102.077H100.802L100.832 29.4558L100.862 29.8757L101.619 29.9046L102.375 29.9335V30.3062C102.375 30.6357 102.335 30.6983 102.03 30.8455C101.84 30.9371 101.462 31.0119 101.19 31.0119C100.866 31.0119 100.566 30.9396 100.326 30.8027C100.122 30.6866 99.8589 30.4147 99.735 30.1918C99.5766 29.9056 99.5126 29.6303 99.5126 29.2335C99.5126 28.8367 99.5766 28.5614 99.735 28.2752C99.8589 28.0523 100.122 27.7803 100.326 27.6643C100.576 27.5221 100.865 27.455 101.227 27.455C101.664 27.455 101.833 27.5082 102.164 27.7507C102.563 28.0438 102.57 28.045 102.91 27.8807C103.099 27.7895 103.253 27.661 103.253 27.5952C103.253 27.5294 103.092 27.3319 102.895 27.1564C102.697 26.9811 102.397 26.7789 102.228 26.7073C102.059 26.6357 101.704 26.5531 101.44 26.5239C101.154 26.4924 100.761 26.5284 100.472 26.6128ZM113.744 26.5286C113.637 26.5561 113.399 26.6261 113.216 26.6841C113.032 26.7421 112.688 26.9706 112.451 27.1919C112.214 27.4133 111.929 27.7742 111.819 27.994C111.701 28.2274 111.598 28.6656 111.571 29.0474C111.539 29.5011 111.574 29.8519 111.687 30.1945C111.775 30.4658 112 30.8679 112.186 31.0882C112.373 31.3084 112.753 31.6036 113.032 31.7443C113.423 31.9414 113.685 31.9999 114.178 31.9994C114.53 31.9991 114.982 31.9529 115.182 31.8966C115.381 31.8404 115.733 31.6501 115.962 31.4738C116.192 31.2971 116.505 30.9187 116.658 30.631C116.833 30.3024 116.955 29.898 116.987 29.5406C117.021 29.1628 116.983 28.7817 116.875 28.4036C116.766 28.0234 116.581 27.692 116.318 27.403C116.102 27.1653 115.739 26.8799 115.513 26.7688C115.285 26.6576 114.839 26.547 114.52 26.5226C114.201 26.4983 113.852 26.501 113.744 26.5286ZM119.722 26.6228C119.682 26.6639 119.649 27.8683 119.649 29.2994V31.9012H120.897C121.998 31.9012 122.196 31.875 122.578 31.6789C122.827 31.551 123.091 31.3166 123.198 31.1269C123.319 30.9142 123.385 30.6087 123.385 30.2666C123.385 29.9453 123.323 29.6402 123.228 29.4933C123.084 29.2702 123.084 29.2248 123.228 28.9319C123.315 28.7566 123.385 28.3812 123.385 28.098C123.385 27.7742 123.318 27.4677 123.205 27.2734C123.106 27.1033 122.869 26.8867 122.679 26.7919C122.418 26.6623 122.018 26.6108 121.064 26.5839C120.366 26.5642 119.762 26.5818 119.722 26.6228ZM128.206 26.6399C128.182 26.6807 128.608 27.87 129.152 29.2829L130.141 31.8518L130.714 31.8818C131.154 31.9048 131.275 31.8819 131.237 31.7831C131.21 31.7122 130.758 30.5648 130.233 29.2335C129.709 27.9021 129.238 26.7573 129.186 26.6893C129.134 26.6215 128.902 26.5658 128.67 26.5658C128.438 26.5658 128.229 26.5991 128.206 26.6399ZM133.87 26.627C133.831 26.6658 133.8 27.8683 133.8 29.2994V31.9012H135.41H137.021V31.4566V31.0119H135.9H134.78L134.754 28.8135L134.727 26.6152L134.334 26.5858C134.116 26.5698 133.908 26.5882 133.87 26.627ZM105.888 29.2829V31.9012H107.499H109.109V31.4566V31.0119H107.987H106.864V28.8383V26.6646H106.376H105.888V29.2829ZM115.005 27.6483C115.211 27.7546 115.45 27.9419 115.538 28.0647C115.625 28.1873 115.748 28.4228 115.811 28.5877C115.874 28.7527 115.928 29.0655 115.931 29.2829C115.934 29.5002 115.856 29.8559 115.757 30.0734C115.659 30.2907 115.493 30.5447 115.39 30.6377C115.286 30.7307 115.03 30.8791 114.822 30.9674C114.558 31.0791 114.312 31.1083 114.016 31.0632C113.74 31.0215 113.465 30.8883 113.238 30.6857C113.045 30.5136 112.826 30.229 112.754 30.0533C112.682 29.8776 112.622 29.5171 112.622 29.2522C112.622 28.9388 112.702 28.6184 112.849 28.3351C112.99 28.0637 113.22 27.8165 113.459 27.6789C113.679 27.5526 114.01 27.4576 114.237 27.4566C114.453 27.4558 114.799 27.542 115.005 27.6483ZM122.332 27.6523C122.435 27.7389 122.479 27.9042 122.46 28.1359C122.438 28.3956 122.366 28.5205 122.187 28.6122C122.052 28.6806 121.646 28.7372 121.283 28.738L120.625 28.7394V28.0846V27.4297L121.4 27.4751C121.839 27.5008 122.243 27.5778 122.332 27.6523ZM122.262 29.7826C122.411 29.8885 122.479 30.0375 122.479 30.2613C122.479 30.4603 122.404 30.6552 122.284 30.7645C122.146 30.8908 121.877 30.9566 121.357 30.9904L120.625 31.0379V30.3334V29.6287H121.335C121.82 29.6287 122.114 29.6775 122.262 29.7826ZM126.399 30.6711C126.175 31.2445 125.992 31.7557 125.992 31.8073C125.992 31.859 126.228 31.9012 126.514 31.9012H127.036L127.441 30.8308C127.664 30.242 127.847 29.7307 127.847 29.6945C127.847 29.6583 127.613 29.6287 127.326 29.6287H126.805L126.399 30.6711Z" fill="black"></path></svg>