<svg xmlns="http://www.w3.org/2000/svg" width="48" height="48" viewBox="0 0 48 48" fill="none"><path fill-rule="evenodd" clip-rule="evenodd" d="M0 35.0302C4.97903e-06 34.1162 0.371293 33.2414 1.02873 32.6064L3.49822 30.2212C4.43828 29.3133 4.96746 28.0612 4.96353 26.7543L4.94082 19.187C4.90904 8.59966 13.4829 0 24.0704 0C34.6354 0 43.2 8.56461 43.2 19.1296L43.2 26.8118C43.2 28.0848 43.7057 29.3057 44.6059 30.2059L47.0059 32.6059C47.6424 33.2424 48 34.1057 48 35.0059C48 36.8804 46.4804 38.4 44.6059 38.4H33.6C33.6 43.7019 29.3019 48 24 48C18.6981 48 14.4 43.7019 14.4 38.4H3.36979C1.50871 38.4 0 36.8913 0 35.0302ZM19.2 38.4C19.2 41.051 21.349 43.2 24 43.2C26.651 43.2 28.8 41.051 28.8 38.4H19.2ZM38.4 26.8118C38.4 29.3579 39.4114 31.7996 41.2118 33.6L6.90841 33.6C8.74133 31.7903 9.77126 29.3185 9.76351 26.7399L9.7408 19.1726C9.71699 11.2418 16.1395 4.8 24.0704 4.8C31.9844 4.8 38.4 11.2156 38.4 19.1296L38.4 26.8118Z" fill="#1E4ED8"></path></svg>