<svg width="10" height="9" viewBox="0 0 10 9" fill="none" xmlns="http://www.w3.org/2000/svg">
<path d="M9.19019 4.10147L1.34635 0.53666C1.26964 0.506239 1.18564 0.499289 1.10499 0.516692C1.02433 0.534096 0.95065 0.575068 0.893316 0.63441C0.835982 0.693752 0.797572 0.768788 0.782954 0.849998C0.768336 0.931207 0.778174 1.01493 0.811216 1.09054L1.97206 4.34613C2.00737 4.44725 2.00737 4.55735 1.97206 4.65847L0.811216 7.91407C0.778174 7.98968 0.768336 8.0734 0.782954 8.15461C0.797572 8.23582 0.835982 8.31085 0.893316 8.3702C0.95065 8.42954 1.02433 8.47051 1.10499 8.48791C1.18564 8.50532 1.26964 8.49837 1.34635 8.46795L9.19019 4.90314C9.26427 4.866 9.32654 4.80898 9.37007 4.73847C9.4136 4.66796 9.43665 4.58673 9.43665 4.50387C9.43665 4.421 9.4136 4.33977 9.37007 4.26926C9.32654 4.19875 9.26427 4.14173 9.19019 4.10459" fill="#F5F5F5"/>
</svg>
