<svg width="8" height="8" viewBox="0 0 8 8" fill="none" xmlns="http://www.w3.org/2000/svg">
<path d="M7.57047 3.59458L0.583332 0.419541C0.515071 0.393487 0.44067 0.388054 0.369349 0.403917C0.298028 0.41978 0.232942 0.456241 0.182161 0.508773C0.13138 0.561305 0.0971357 0.627595 0.0836984 0.699413C0.0702612 0.77123 0.0782207 0.845413 0.106574 0.912751L1.14025 3.81241C1.1711 3.90161 1.1711 3.99859 1.14025 4.08779L0.106574 6.98745C0.0776994 7.05479 0.0693595 7.12917 0.0826009 7.20124C0.0958424 7.2733 0.130073 7.33986 0.181 7.39254C0.231928 7.44523 0.297284 7.48169 0.368863 7.49737C0.440441 7.51305 0.515046 7.50723 0.583332 7.48066L7.57047 4.30562C7.63644 4.27256 7.69192 4.2218 7.73069 4.15902C7.76946 4.09623 7.78999 4.02389 7.78999 3.9501C7.78999 3.87631 7.76946 3.80397 7.73069 3.74118C7.69192 3.67839 7.63644 3.62763 7.57047 3.59458Z" fill="#1D1E3D"/>
</svg>
