<svg xmlns="http://www.w3.org/2000/svg" width="41" height="41" viewBox="0 0 41 41" fill="none"><g opacity="0.4"><rect x="1.5" y="1.4751" width="38" height="38" rx="9" stroke="black" stroke-width="2"></rect><g clip-path="url(#clip0_997_422)"><path d="M13.8843 21.1231L26.5746 26.8885C26.6986 26.9362 26.8339 26.9463 26.9637 26.9176C27.0934 26.8889 27.2118 26.8226 27.3041 26.7271C27.3965 26.6315 27.4586 26.5109 27.4829 26.3802C27.5071 26.2496 27.4924 26.1147 27.4404 25.9924L25.5604 20.7251C25.5044 20.5631 25.5044 20.3869 25.5604 20.2248L27.4404 14.9576C27.4929 14.8353 27.508 14.7002 27.484 14.5693C27.46 14.4384 27.3978 14.3175 27.3053 14.2218C27.2129 14.1261 27.0942 14.0598 26.9642 14.0313C26.8342 14.0028 26.6986 14.0133 26.5746 14.0615L13.8843 19.829C13.7642 19.8888 13.6631 19.981 13.5925 20.0951C13.5219 20.2092 13.4844 20.3408 13.4844 20.475C13.4844 20.6092 13.5219 20.7408 13.5925 20.8549C13.6631 20.969 13.7642 21.0612 13.8843 21.121" fill="black"></path></g></g><defs><clipPath id="clip0_997_422"><rect width="14" height="12.942" fill="white" transform="matrix(-1 0 0 -1 27.4951 26.946)"></rect></clipPath></defs></svg>