<svg xmlns="http://www.w3.org/2000/svg" width="41" height="41" viewBox="0 0 41 41" fill="none"><g opacity="0.4"><rect x="1.5" y="1.4751" width="38" height="38" rx="9" stroke="black" stroke-width="2"></rect><g clip-path="url(#clip0_997_426)"><path d="M27.0961 19.8271L14.4059 14.0617C14.2819 14.014 14.1465 14.0039 14.0168 14.0326C13.8871 14.0613 13.7687 14.1276 13.6763 14.2231C13.584 14.3187 13.5218 14.4393 13.4976 14.57C13.4734 14.7006 13.4881 14.8355 13.54 14.9578L15.4201 20.225C15.4761 20.3871 15.4761 20.5633 15.4201 20.7253L13.54 25.9926C13.4876 26.1149 13.4724 26.25 13.4965 26.3809C13.5205 26.5118 13.5827 26.6327 13.6751 26.7284C13.7676 26.8241 13.8863 26.8904 14.0163 26.9189C14.1463 26.9474 14.2818 26.9369 14.4059 26.8887L27.0961 21.1212C27.2163 21.0614 27.3173 20.9692 27.388 20.8551C27.4586 20.741 27.496 20.6094 27.496 20.4752C27.496 20.341 27.4586 20.2094 27.388 20.0953C27.3173 19.9812 27.2163 19.889 27.0961 19.8292" fill="black"></path></g></g><defs><clipPath id="clip0_997_426"><rect width="14" height="12.942" fill="white" transform="translate(13.4854 14.0042)"></rect></clipPath></defs></svg>