<svg xmlns="http://www.w3.org/2000/svg" width="48" height="48" viewBox="0 0 48 48" fill="none"><path d="M9.5 10H7.125C3.18997 10 0 13.19 0 17.125V40.875C0 44.81 3.18997 48 7.125 48H30.875C34.81 48 38 44.81 38 40.875V38.5H33.25V40.875C33.25 42.1867 32.1867 43.25 30.875 43.25H7.125C5.81332 43.25 4.75 42.1867 4.75 40.875V17.125C4.75 15.8133 5.81332 14.75 7.125 14.75H9.5V10Z" fill="#1E4ED8"></path><path fill-rule="evenodd" clip-rule="evenodd" d="M40.875 4.75H17.125C15.8133 4.75 14.75 5.81332 14.75 7.125V30.875C14.75 32.1867 15.8133 33.25 17.125 33.25H40.875C42.1867 33.25 43.25 32.1867 43.25 30.875V7.125C43.25 5.81332 42.1867 4.75 40.875 4.75ZM17.125 0C13.19 0 10 3.18997 10 7.125V30.875C10 34.81 13.19 38 17.125 38H40.875C44.81 38 48 34.81 48 30.875V7.125C48 3.18997 44.81 0 40.875 0H17.125Z" fill="#1E4ED8"></path><path fill-rule="evenodd" clip-rule="evenodd" d="M37.3044 12.7322C38.2319 13.7085 38.2319 15.2915 37.3044 16.2678L27.8044 26.2678C26.8769 27.2441 25.3731 27.2441 24.4456 26.2678L19.6956 21.2678C18.7681 20.2915 18.7681 18.7085 19.6956 17.7322C20.6231 16.7559 22.1269 16.7559 23.0544 17.7322L26.125 20.9645L33.9456 12.7322C34.8731 11.7559 36.3769 11.7559 37.3044 12.7322Z" fill="#1E4ED8"></path></svg>