<svg xmlns="http://www.w3.org/2000/svg" width="56" height="56" viewBox="0 0 56 56" fill="none"><path fill-rule="evenodd" clip-rule="evenodd" d="M44 34.8889H12C10.5272 34.8889 9.33333 35.9833 9.33333 37.3333V44.6667C9.33333 46.0167 10.5272 47.1111 12 47.1111H44C45.4728 47.1111 46.6667 46.0167 46.6667 44.6667V37.3333C46.6667 35.9833 45.4728 34.8889 44 34.8889ZM12 30C7.58172 30 4 33.2832 4 37.3333V44.6667C4 48.7168 7.58172 52 12 52H44C48.4183 52 52 48.7168 52 44.6667V37.3333C52 33.2832 48.4183 30 44 30H12Z" fill="#1E4ED8"></path><path fill-rule="evenodd" clip-rule="evenodd" d="M44 8.88889H12C10.5272 8.88889 9.33333 9.9833 9.33333 11.3333V18.6667C9.33333 20.0167 10.5272 21.1111 12 21.1111H44C45.4728 21.1111 46.6667 20.0167 46.6667 18.6667V11.3333C46.6667 9.9833 45.4728 8.88889 44 8.88889ZM12 4C7.58172 4 4 7.28324 4 11.3333V18.6667C4 22.7168 7.58172 26 12 26H44C48.4183 26 52 22.7168 52 18.6667V11.3333C52 7.28325 48.4183 4 44 4H12Z" fill="#1E4ED8"></path><path fill-rule="evenodd" clip-rule="evenodd" d="M13 41.5C13 40.1193 14.1939 39 15.6667 39H30.3333C31.8061 39 33 40.1193 33 41.5C33 42.8807 31.8061 44 30.3333 44H15.6667C14.1939 44 13 42.8807 13 41.5Z" fill="#1E4ED8"></path><path fill-rule="evenodd" clip-rule="evenodd" d="M13 14.5C13 13.1193 14.1939 12 15.6667 12H30.3333C31.8061 12 33 13.1193 33 14.5C33 15.8807 31.8061 17 30.3333 17H15.6667C14.1939 17 13 15.8807 13 14.5Z" fill="#1E4ED8"></path><path d="M43 41.5C43 42.8807 41.6569 44 40 44C38.3431 44 37 42.8807 37 41.5C37 40.1193 38.3431 39 40 39C41.6569 39 43 40.1193 43 41.5Z" fill="#1E4ED8"></path><path d="M43 14.5C43 15.8807 41.6569 17 40 17C38.3431 17 37 15.8807 37 14.5C37 13.1193 38.3431 12 40 12C41.6569 12 43 13.1193 43 14.5Z" fill="#1E4ED8"></path></svg>