<svg xmlns="http://www.w3.org/2000/svg" width="24" height="24" viewBox="0 0 24 24" fill="none"><g clip-path="url(#clip0_997_94)"><path d="M23.73 12C23.73 5.64873 18.5813 0.5 12.23 0.5C5.87871 0.5 0.72998 5.64873 0.72998 12C0.72998 18.3513 5.87871 23.5 12.23 23.5C18.5813 23.5 23.73 18.3513 23.73 12Z" fill="#1E4ED8"></path><path d="M16.189 11.67L9.69599 8.71898C9.63258 8.69452 9.56337 8.68928 9.497 8.70391C9.43064 8.71855 9.37004 8.7524 9.32279 8.80125C9.27554 8.8501 9.24373 8.91178 9.23132 8.9786C9.2189 9.04542 9.22643 9.11441 9.25299 9.17698L10.214 11.877C10.2426 11.9599 10.2426 12.05 10.214 12.133L9.25299 14.833C9.22643 14.8955 9.2189 14.9645 9.23132 15.0314C9.24373 15.0982 9.27554 15.1599 9.32279 15.2087C9.37004 15.2576 9.43064 15.2914 9.497 15.306C9.56337 15.3207 9.63258 15.3154 9.69599 15.291L16.189 12.34C16.2502 12.3092 16.3017 12.2619 16.3376 12.2036C16.3736 12.1452 16.3926 12.078 16.3926 12.0095C16.3926 11.9409 16.3736 11.8737 16.3376 11.8154C16.3017 11.757 16.2502 11.7098 16.189 11.679" fill="white"></path></g><defs><clipPath id="clip0_997_94"><rect width="23" height="23" fill="white" transform="translate(0.72998 0.5)"></rect></clipPath></defs></svg>