<svg xmlns="http://www.w3.org/2000/svg" width="61" height="59" viewBox="0 0 61 59" fill="none"><path fill-rule="evenodd" clip-rule="evenodd" d="M42.4211 24.7368C42.4211 34.5036 34.5036 42.4211 24.7368 42.4211C14.9701 42.4211 7.05263 34.5036 7.05263 24.7368C7.05263 14.9701 14.9701 7.05263 24.7368 7.05263C34.5036 7.05263 42.4211 14.9701 42.4211 24.7368ZM42.5016 38.9289C45.6131 35.0392 47.4737 30.1053 47.4737 24.7368C47.4737 12.1796 37.2941 2 24.7368 2C12.1796 2 2 12.1796 2 24.7368C2 37.2941 12.1796 47.4737 24.7368 47.4737C30.1053 47.4737 35.0392 45.6131 38.9289 42.5016L45.6873 49.2601C46.6739 50.2466 48.2735 50.2466 49.2601 49.2601C50.2466 48.2735 50.2466 46.6739 49.2601 45.6873L42.5016 38.9289Z" fill="#1E4ED8"></path></svg>